M48
;DRILL file {kicad (2014-11-21 BZR 5297)-product} date Mo 02 Feb 2015 01:26:15 CET
;FORMAT={-:-/ absolute / metric / decimal}
FMAT,2
METRIC,TZ
T1C0.635
T2C1.016
%
G90
G05
M71
T1
X156.Y-103.8
X156.5Y-109.5
X156.8Y-102.7
X158.5Y-112.9
X161.9Y-117.9
X163.2Y-107.5
X163.6Y-114.1
X165.3Y-105.3
X167.1Y-114.1
X168.1Y-101.4
X170.Y-110.
X171.1Y-109.1
X171.3Y-118.9
T2
X156.75Y-123.9
X159.29Y-123.9
X161.83Y-123.9
X164.37Y-123.9
X166.91Y-123.9
X169.45Y-123.9
X174.2Y-109.25
X174.2Y-111.79
X174.2Y-114.33
X174.2Y-116.87
X174.2Y-119.41
X174.2Y-121.95
T0
M30
