G04 #@! TF.FileFunction,Copper,L2,Bot,Signal*
%FSLAX46Y46*%
G04 Gerber Fmt 4.6, Leading zero omitted, Abs format (unit mm)*
G04 Created by KiCad (PCBNEW (2014-11-21 BZR 5297)-product) date Mo 02 Feb 2015 01:28:56 CET*
%MOMM*%
G01*
G04 APERTURE LIST*
%ADD10C,0.150000*%
%ADD11R,2.032000X1.727200*%
%ADD12O,2.032000X1.727200*%
%ADD13R,1.727200X2.032000*%
%ADD14O,1.727200X2.032000*%
%ADD15C,0.889000*%
%ADD16C,0.300000*%
%ADD17C,0.254000*%
%ADD18C,1.000000*%
%ADD19C,0.500000*%
G04 APERTURE END LIST*
D10*
D11*
X174200000Y-121950000D03*
D12*
X174200000Y-119410000D03*
X174200000Y-116870000D03*
X174200000Y-114330000D03*
X174200000Y-111790000D03*
X174200000Y-109250000D03*
D13*
X169450000Y-123900000D03*
D14*
X166910000Y-123900000D03*
X164370000Y-123900000D03*
X161830000Y-123900000D03*
X159290000Y-123900000D03*
X156750000Y-123900000D03*
D15*
X156500000Y-109500000D03*
X163200000Y-107500000D03*
X156000000Y-103800000D03*
X161900000Y-117900000D03*
X171300000Y-118900000D03*
X158500000Y-112900000D03*
X156800000Y-102700000D03*
X170000000Y-110000000D03*
X165300000Y-105300000D03*
X167100000Y-114100000D03*
X163600000Y-114100000D03*
X171100000Y-109100000D03*
X168100000Y-101400000D03*
D16*
X156750000Y-109750000D02*
X156750000Y-123900000D01*
X156500000Y-109500000D02*
X156750000Y-109750000D01*
D17*
X159400000Y-107500000D02*
X163200000Y-107500000D01*
X159100000Y-107200000D02*
X159400000Y-107500000D01*
X159100000Y-103000000D02*
X159100000Y-107200000D01*
X157800000Y-101700000D02*
X159100000Y-103000000D01*
X156100000Y-101700000D02*
X157800000Y-101700000D01*
X155500000Y-102300000D02*
X156100000Y-101700000D01*
X155500000Y-103300000D02*
X155500000Y-102300000D01*
X156000000Y-103800000D02*
X155500000Y-103300000D01*
X156500000Y-104300000D02*
X156000000Y-103800000D01*
X156500000Y-109500000D02*
X156500000Y-104300000D01*
D16*
X161900000Y-120000000D02*
X159290000Y-122610000D01*
X159290000Y-122610000D02*
X159290000Y-123900000D01*
X161900000Y-117900000D02*
X161900000Y-120000000D01*
D18*
X156750000Y-123900000D02*
X159290000Y-123900000D01*
D16*
X157700000Y-103600000D02*
X156800000Y-102700000D01*
X157700000Y-112100000D02*
X157700000Y-103600000D01*
X158500000Y-112900000D02*
X157700000Y-112100000D01*
X170000000Y-110000000D02*
X169900000Y-109900000D01*
X169900000Y-109900000D02*
X169900000Y-105900000D01*
X169900000Y-105900000D02*
X169300000Y-105300000D01*
X169300000Y-105300000D02*
X165300000Y-105300000D01*
X167100000Y-114100000D02*
X163600000Y-114100000D01*
D17*
X161830000Y-122670000D02*
X161830000Y-123900000D01*
D19*
X161830000Y-122670000D02*
X161830000Y-123900000D01*
X174200000Y-114330000D02*
X173570000Y-114330000D01*
D18*
X171670000Y-114330000D02*
X165800000Y-120200000D01*
X165800000Y-120200000D02*
X163300000Y-120200000D01*
X163300000Y-120200000D02*
X161830000Y-121670000D01*
X161830000Y-121670000D02*
X161830000Y-123900000D01*
X174200000Y-114330000D02*
X171670000Y-114330000D01*
D16*
X171100000Y-109100000D02*
X171100000Y-104400000D01*
D17*
X171100000Y-104400000D02*
X168100000Y-101400000D01*
G36*
X175523000Y-108317800D02*
X175351729Y-108131514D01*
X175114321Y-107958046D01*
X174847633Y-107834227D01*
X174561914Y-107764815D01*
X174327000Y-107909075D01*
X174327000Y-109123000D01*
X174347000Y-109123000D01*
X174347000Y-109377000D01*
X174327000Y-109377000D01*
X174327000Y-110449075D01*
X174327000Y-110590925D01*
X174327000Y-111663000D01*
X174347000Y-111663000D01*
X174347000Y-111917000D01*
X174327000Y-111917000D01*
X174327000Y-111937000D01*
X174073000Y-111937000D01*
X174073000Y-111917000D01*
X174073000Y-111663000D01*
X174073000Y-110590925D01*
X174073000Y-110449075D01*
X174073000Y-109377000D01*
X174073000Y-109123000D01*
X174073000Y-107909075D01*
X173838086Y-107764815D01*
X173552367Y-107834227D01*
X173285679Y-107958046D01*
X173048271Y-108131514D01*
X172849267Y-108347965D01*
X172696314Y-108599081D01*
X172595291Y-108875211D01*
X172592642Y-108890974D01*
X172713783Y-109123000D01*
X174073000Y-109123000D01*
X174073000Y-109377000D01*
X172713783Y-109377000D01*
X172592642Y-109609026D01*
X172595291Y-109624789D01*
X172696314Y-109900919D01*
X172849267Y-110152035D01*
X173048271Y-110368486D01*
X173255632Y-110520000D01*
X173048271Y-110671514D01*
X172849267Y-110887965D01*
X172696314Y-111139081D01*
X172595291Y-111415211D01*
X172592642Y-111430974D01*
X172713783Y-111663000D01*
X174073000Y-111663000D01*
X174073000Y-111917000D01*
X172713783Y-111917000D01*
X172592642Y-112149026D01*
X172595291Y-112164789D01*
X172696314Y-112440919D01*
X172849267Y-112692035D01*
X173048271Y-112908486D01*
X173285679Y-113081954D01*
X173481198Y-113172730D01*
X173326411Y-113255032D01*
X173144983Y-113403000D01*
X171971538Y-113403000D01*
X171971538Y-109014545D01*
X171938341Y-108846890D01*
X171873212Y-108688876D01*
X171778632Y-108546521D01*
X171677000Y-108444176D01*
X171677000Y-104400000D01*
X171666011Y-104287927D01*
X171633463Y-104180122D01*
X171580596Y-104080693D01*
X171509422Y-103993426D01*
X171422654Y-103921645D01*
X171384476Y-103901002D01*
X168969148Y-101485674D01*
X168971538Y-101314545D01*
X168938341Y-101146890D01*
X168873212Y-100988876D01*
X168778632Y-100846521D01*
X168658203Y-100725248D01*
X168516512Y-100629677D01*
X168358957Y-100563446D01*
X168191537Y-100529080D01*
X168020632Y-100527887D01*
X167852749Y-100559912D01*
X167694284Y-100623936D01*
X167551272Y-100717520D01*
X167429162Y-100837100D01*
X167332603Y-100978120D01*
X167265275Y-101135210D01*
X167229741Y-101302385D01*
X167227354Y-101473278D01*
X167258207Y-101641380D01*
X167321123Y-101800288D01*
X167413706Y-101943950D01*
X167532430Y-102066892D01*
X167672773Y-102164433D01*
X167829389Y-102232856D01*
X167996312Y-102269557D01*
X168167184Y-102273136D01*
X168186292Y-102269766D01*
X170523000Y-104606474D01*
X170523000Y-108445206D01*
X170477000Y-108490253D01*
X170477000Y-105900000D01*
X170471799Y-105846957D01*
X170467153Y-105793860D01*
X170466307Y-105790949D01*
X170466011Y-105787927D01*
X170450598Y-105736876D01*
X170435736Y-105685720D01*
X170434340Y-105683026D01*
X170433463Y-105680122D01*
X170408435Y-105633050D01*
X170383913Y-105585743D01*
X170382020Y-105583372D01*
X170380596Y-105580693D01*
X170346913Y-105539394D01*
X170313657Y-105497735D01*
X170309488Y-105493507D01*
X170309422Y-105493426D01*
X170309346Y-105493363D01*
X170308001Y-105491999D01*
X169708001Y-104891999D01*
X169666784Y-104858143D01*
X169625986Y-104823910D01*
X169623330Y-104822449D01*
X169620983Y-104820522D01*
X169573955Y-104795306D01*
X169527304Y-104769659D01*
X169524415Y-104768742D01*
X169521738Y-104767307D01*
X169470692Y-104751700D01*
X169419965Y-104735609D01*
X169416954Y-104735271D01*
X169414049Y-104734383D01*
X169361018Y-104728996D01*
X169308056Y-104723056D01*
X169302119Y-104723014D01*
X169302014Y-104723004D01*
X169301915Y-104723013D01*
X169300000Y-104723000D01*
X165955274Y-104723000D01*
X165858203Y-104625248D01*
X165716512Y-104529677D01*
X165558957Y-104463446D01*
X165391537Y-104429080D01*
X165220632Y-104427887D01*
X165052749Y-104459912D01*
X164894284Y-104523936D01*
X164751272Y-104617520D01*
X164629162Y-104737100D01*
X164532603Y-104878120D01*
X164465275Y-105035210D01*
X164429741Y-105202385D01*
X164427354Y-105373278D01*
X164458207Y-105541380D01*
X164521123Y-105700288D01*
X164613706Y-105843950D01*
X164732430Y-105966892D01*
X164872773Y-106064433D01*
X165029389Y-106132856D01*
X165196312Y-106169557D01*
X165367184Y-106173136D01*
X165535498Y-106143458D01*
X165694841Y-106081653D01*
X165839145Y-105990074D01*
X165957885Y-105877000D01*
X169060998Y-105877000D01*
X169323000Y-106139002D01*
X169323000Y-109446099D01*
X169232603Y-109578120D01*
X169165275Y-109735210D01*
X169129741Y-109902385D01*
X169127354Y-110073278D01*
X169158207Y-110241380D01*
X169221123Y-110400288D01*
X169313706Y-110543950D01*
X169432430Y-110666892D01*
X169572773Y-110764433D01*
X169729389Y-110832856D01*
X169896312Y-110869557D01*
X170067184Y-110873136D01*
X170235498Y-110843458D01*
X170394841Y-110781653D01*
X170539145Y-110690074D01*
X170662913Y-110572212D01*
X170761431Y-110432553D01*
X170830947Y-110276419D01*
X170868812Y-110109756D01*
X170871154Y-109942038D01*
X170996312Y-109969557D01*
X171167184Y-109973136D01*
X171335498Y-109943458D01*
X171494841Y-109881653D01*
X171639145Y-109790074D01*
X171762913Y-109672212D01*
X171861431Y-109532553D01*
X171930947Y-109376419D01*
X171968812Y-109209756D01*
X171971538Y-109014545D01*
X171971538Y-113403000D01*
X171670000Y-113403000D01*
X171584790Y-113411355D01*
X171499477Y-113418819D01*
X171494794Y-113420179D01*
X171489945Y-113420655D01*
X171407972Y-113445403D01*
X171325743Y-113469294D01*
X171321417Y-113471536D01*
X171316748Y-113472946D01*
X171241129Y-113513153D01*
X171165120Y-113552552D01*
X171161309Y-113555593D01*
X171157006Y-113557882D01*
X171090674Y-113611980D01*
X171023728Y-113665423D01*
X171016942Y-113672115D01*
X171016804Y-113672228D01*
X171016698Y-113672356D01*
X171014512Y-113674512D01*
X167971538Y-116717486D01*
X167971538Y-114014545D01*
X167938341Y-113846890D01*
X167873212Y-113688876D01*
X167778632Y-113546521D01*
X167658203Y-113425248D01*
X167516512Y-113329677D01*
X167358957Y-113263446D01*
X167191537Y-113229080D01*
X167020632Y-113227887D01*
X166852749Y-113259912D01*
X166694284Y-113323936D01*
X166551272Y-113417520D01*
X166443560Y-113523000D01*
X164255274Y-113523000D01*
X164158203Y-113425248D01*
X164016512Y-113329677D01*
X163858957Y-113263446D01*
X163691537Y-113229080D01*
X163520632Y-113227887D01*
X163352749Y-113259912D01*
X163194284Y-113323936D01*
X163051272Y-113417520D01*
X162929162Y-113537100D01*
X162832603Y-113678120D01*
X162765275Y-113835210D01*
X162729741Y-114002385D01*
X162727354Y-114173278D01*
X162758207Y-114341380D01*
X162821123Y-114500288D01*
X162913706Y-114643950D01*
X163032430Y-114766892D01*
X163172773Y-114864433D01*
X163329389Y-114932856D01*
X163496312Y-114969557D01*
X163667184Y-114973136D01*
X163835498Y-114943458D01*
X163994841Y-114881653D01*
X164139145Y-114790074D01*
X164257885Y-114677000D01*
X166445622Y-114677000D01*
X166532430Y-114766892D01*
X166672773Y-114864433D01*
X166829389Y-114932856D01*
X166996312Y-114969557D01*
X167167184Y-114973136D01*
X167335498Y-114943458D01*
X167494841Y-114881653D01*
X167639145Y-114790074D01*
X167762913Y-114672212D01*
X167861431Y-114532553D01*
X167930947Y-114376419D01*
X167968812Y-114209756D01*
X167971538Y-114014545D01*
X167971538Y-116717486D01*
X165416024Y-119273000D01*
X163300000Y-119273000D01*
X163214790Y-119281355D01*
X163129477Y-119288819D01*
X163124794Y-119290179D01*
X163119945Y-119290655D01*
X163037985Y-119315399D01*
X162955742Y-119339294D01*
X162951414Y-119341537D01*
X162946748Y-119342946D01*
X162871168Y-119383132D01*
X162795119Y-119422552D01*
X162791306Y-119425595D01*
X162787006Y-119427882D01*
X162720666Y-119481987D01*
X162653728Y-119535424D01*
X162646943Y-119542114D01*
X162646804Y-119542228D01*
X162646696Y-119542357D01*
X162644512Y-119544512D01*
X161174512Y-121014512D01*
X161120159Y-121080682D01*
X161065120Y-121146276D01*
X161062771Y-121150547D01*
X161059678Y-121154314D01*
X161019202Y-121229799D01*
X160977962Y-121304816D01*
X160976489Y-121309458D01*
X160974184Y-121313758D01*
X160949147Y-121395649D01*
X160923257Y-121477266D01*
X160922713Y-121482113D01*
X160921289Y-121486772D01*
X160912641Y-121571901D01*
X160903090Y-121657057D01*
X160903023Y-121666589D01*
X160903006Y-121666764D01*
X160903021Y-121666926D01*
X160903000Y-121670000D01*
X160903000Y-122847138D01*
X160765109Y-123011472D01*
X160672304Y-123180281D01*
X160581954Y-122985679D01*
X160408486Y-122748271D01*
X160192035Y-122549267D01*
X159940919Y-122396314D01*
X159664789Y-122295291D01*
X159649026Y-122292642D01*
X159417000Y-122413783D01*
X159417000Y-123773000D01*
X159437000Y-123773000D01*
X159437000Y-124027000D01*
X159417000Y-124027000D01*
X159417000Y-124047000D01*
X159371538Y-124047000D01*
X159371538Y-112814545D01*
X159338341Y-112646890D01*
X159273212Y-112488876D01*
X159178632Y-112346521D01*
X159058203Y-112225248D01*
X158916512Y-112129677D01*
X158758957Y-112063446D01*
X158591537Y-112029080D01*
X158444052Y-112028050D01*
X158277000Y-111860998D01*
X158277000Y-103600000D01*
X158271799Y-103546957D01*
X158267153Y-103493860D01*
X158266307Y-103490949D01*
X158266011Y-103487927D01*
X158250598Y-103436876D01*
X158235736Y-103385720D01*
X158234340Y-103383026D01*
X158233463Y-103380122D01*
X158208435Y-103333050D01*
X158183913Y-103285743D01*
X158182020Y-103283372D01*
X158180596Y-103280693D01*
X158146913Y-103239394D01*
X158113657Y-103197735D01*
X158109492Y-103193511D01*
X158109422Y-103193426D01*
X158109342Y-103193360D01*
X158108000Y-103191999D01*
X157669596Y-102753594D01*
X157671538Y-102614545D01*
X157638341Y-102446890D01*
X157573212Y-102288876D01*
X157478632Y-102146521D01*
X157358203Y-102025248D01*
X157216512Y-101929677D01*
X157058957Y-101863446D01*
X156891537Y-101829080D01*
X156720632Y-101827887D01*
X156552749Y-101859912D01*
X156394284Y-101923936D01*
X156251272Y-102017520D01*
X156129162Y-102137100D01*
X156032603Y-102278120D01*
X155965275Y-102435210D01*
X155929741Y-102602385D01*
X155927354Y-102773278D01*
X155958207Y-102941380D01*
X156021123Y-103100288D01*
X156113706Y-103243950D01*
X156232430Y-103366892D01*
X156372773Y-103464433D01*
X156529389Y-103532856D01*
X156696312Y-103569557D01*
X156856919Y-103572921D01*
X157123000Y-103839001D01*
X157123000Y-112100000D01*
X157128200Y-112153042D01*
X157132847Y-112206140D01*
X157133692Y-112209050D01*
X157133989Y-112212073D01*
X157149401Y-112263123D01*
X157164264Y-112314280D01*
X157165659Y-112316973D01*
X157166537Y-112319878D01*
X157191564Y-112366949D01*
X157216087Y-112414257D01*
X157217979Y-112416627D01*
X157219404Y-112419307D01*
X157253086Y-112460605D01*
X157286343Y-112502265D01*
X157290511Y-112506492D01*
X157290578Y-112506574D01*
X157290653Y-112506636D01*
X157291999Y-112508001D01*
X157629143Y-112845145D01*
X157627354Y-112973278D01*
X157658207Y-113141380D01*
X157721123Y-113300288D01*
X157813706Y-113443950D01*
X157932430Y-113566892D01*
X158072773Y-113664433D01*
X158229389Y-113732856D01*
X158396312Y-113769557D01*
X158567184Y-113773136D01*
X158735498Y-113743458D01*
X158894841Y-113681653D01*
X159039145Y-113590074D01*
X159162913Y-113472212D01*
X159261431Y-113332553D01*
X159330947Y-113176419D01*
X159368812Y-113009756D01*
X159371538Y-112814545D01*
X159371538Y-124047000D01*
X159163000Y-124047000D01*
X159163000Y-124027000D01*
X159163000Y-123773000D01*
X159163000Y-122413783D01*
X158930974Y-122292642D01*
X158915211Y-122295291D01*
X158639081Y-122396314D01*
X158387965Y-122549267D01*
X158171514Y-122748271D01*
X158020000Y-122955632D01*
X157868486Y-122748271D01*
X157652035Y-122549267D01*
X157400919Y-122396314D01*
X157124789Y-122295291D01*
X157109026Y-122292642D01*
X156877000Y-122413783D01*
X156877000Y-123773000D01*
X157949075Y-123773000D01*
X158090925Y-123773000D01*
X159163000Y-123773000D01*
X159163000Y-124027000D01*
X158090925Y-124027000D01*
X157949075Y-124027000D01*
X156877000Y-124027000D01*
X156877000Y-124047000D01*
X156623000Y-124047000D01*
X156623000Y-124027000D01*
X156623000Y-123773000D01*
X156623000Y-122413783D01*
X156390974Y-122292642D01*
X156375211Y-122295291D01*
X156099081Y-122396314D01*
X155847965Y-122549267D01*
X155631514Y-122748271D01*
X155458046Y-122985679D01*
X155334227Y-123252367D01*
X155264815Y-123538086D01*
X155409075Y-123773000D01*
X156623000Y-123773000D01*
X156623000Y-124027000D01*
X155409075Y-124027000D01*
X155264815Y-124261914D01*
X155334227Y-124547633D01*
X155458046Y-124814321D01*
X155631514Y-125051729D01*
X155847965Y-125250733D01*
X156099081Y-125403686D01*
X156375211Y-125504709D01*
X156390974Y-125507358D01*
X156622998Y-125386218D01*
X156622998Y-125523000D01*
X155000000Y-125523000D01*
X154977000Y-125523000D01*
X154977000Y-99477000D01*
X155000000Y-99477000D01*
X175523000Y-99477000D01*
X175523000Y-108317800D01*
X175523000Y-108317800D01*
G37*
X175523000Y-108317800D02*
X175351729Y-108131514D01*
X175114321Y-107958046D01*
X174847633Y-107834227D01*
X174561914Y-107764815D01*
X174327000Y-107909075D01*
X174327000Y-109123000D01*
X174347000Y-109123000D01*
X174347000Y-109377000D01*
X174327000Y-109377000D01*
X174327000Y-110449075D01*
X174327000Y-110590925D01*
X174327000Y-111663000D01*
X174347000Y-111663000D01*
X174347000Y-111917000D01*
X174327000Y-111917000D01*
X174327000Y-111937000D01*
X174073000Y-111937000D01*
X174073000Y-111917000D01*
X174073000Y-111663000D01*
X174073000Y-110590925D01*
X174073000Y-110449075D01*
X174073000Y-109377000D01*
X174073000Y-109123000D01*
X174073000Y-107909075D01*
X173838086Y-107764815D01*
X173552367Y-107834227D01*
X173285679Y-107958046D01*
X173048271Y-108131514D01*
X172849267Y-108347965D01*
X172696314Y-108599081D01*
X172595291Y-108875211D01*
X172592642Y-108890974D01*
X172713783Y-109123000D01*
X174073000Y-109123000D01*
X174073000Y-109377000D01*
X172713783Y-109377000D01*
X172592642Y-109609026D01*
X172595291Y-109624789D01*
X172696314Y-109900919D01*
X172849267Y-110152035D01*
X173048271Y-110368486D01*
X173255632Y-110520000D01*
X173048271Y-110671514D01*
X172849267Y-110887965D01*
X172696314Y-111139081D01*
X172595291Y-111415211D01*
X172592642Y-111430974D01*
X172713783Y-111663000D01*
X174073000Y-111663000D01*
X174073000Y-111917000D01*
X172713783Y-111917000D01*
X172592642Y-112149026D01*
X172595291Y-112164789D01*
X172696314Y-112440919D01*
X172849267Y-112692035D01*
X173048271Y-112908486D01*
X173285679Y-113081954D01*
X173481198Y-113172730D01*
X173326411Y-113255032D01*
X173144983Y-113403000D01*
X171971538Y-113403000D01*
X171971538Y-109014545D01*
X171938341Y-108846890D01*
X171873212Y-108688876D01*
X171778632Y-108546521D01*
X171677000Y-108444176D01*
X171677000Y-104400000D01*
X171666011Y-104287927D01*
X171633463Y-104180122D01*
X171580596Y-104080693D01*
X171509422Y-103993426D01*
X171422654Y-103921645D01*
X171384476Y-103901002D01*
X168969148Y-101485674D01*
X168971538Y-101314545D01*
X168938341Y-101146890D01*
X168873212Y-100988876D01*
X168778632Y-100846521D01*
X168658203Y-100725248D01*
X168516512Y-100629677D01*
X168358957Y-100563446D01*
X168191537Y-100529080D01*
X168020632Y-100527887D01*
X167852749Y-100559912D01*
X167694284Y-100623936D01*
X167551272Y-100717520D01*
X167429162Y-100837100D01*
X167332603Y-100978120D01*
X167265275Y-101135210D01*
X167229741Y-101302385D01*
X167227354Y-101473278D01*
X167258207Y-101641380D01*
X167321123Y-101800288D01*
X167413706Y-101943950D01*
X167532430Y-102066892D01*
X167672773Y-102164433D01*
X167829389Y-102232856D01*
X167996312Y-102269557D01*
X168167184Y-102273136D01*
X168186292Y-102269766D01*
X170523000Y-104606474D01*
X170523000Y-108445206D01*
X170477000Y-108490253D01*
X170477000Y-105900000D01*
X170471799Y-105846957D01*
X170467153Y-105793860D01*
X170466307Y-105790949D01*
X170466011Y-105787927D01*
X170450598Y-105736876D01*
X170435736Y-105685720D01*
X170434340Y-105683026D01*
X170433463Y-105680122D01*
X170408435Y-105633050D01*
X170383913Y-105585743D01*
X170382020Y-105583372D01*
X170380596Y-105580693D01*
X170346913Y-105539394D01*
X170313657Y-105497735D01*
X170309488Y-105493507D01*
X170309422Y-105493426D01*
X170309346Y-105493363D01*
X170308001Y-105491999D01*
X169708001Y-104891999D01*
X169666784Y-104858143D01*
X169625986Y-104823910D01*
X169623330Y-104822449D01*
X169620983Y-104820522D01*
X169573955Y-104795306D01*
X169527304Y-104769659D01*
X169524415Y-104768742D01*
X169521738Y-104767307D01*
X169470692Y-104751700D01*
X169419965Y-104735609D01*
X169416954Y-104735271D01*
X169414049Y-104734383D01*
X169361018Y-104728996D01*
X169308056Y-104723056D01*
X169302119Y-104723014D01*
X169302014Y-104723004D01*
X169301915Y-104723013D01*
X169300000Y-104723000D01*
X165955274Y-104723000D01*
X165858203Y-104625248D01*
X165716512Y-104529677D01*
X165558957Y-104463446D01*
X165391537Y-104429080D01*
X165220632Y-104427887D01*
X165052749Y-104459912D01*
X164894284Y-104523936D01*
X164751272Y-104617520D01*
X164629162Y-104737100D01*
X164532603Y-104878120D01*
X164465275Y-105035210D01*
X164429741Y-105202385D01*
X164427354Y-105373278D01*
X164458207Y-105541380D01*
X164521123Y-105700288D01*
X164613706Y-105843950D01*
X164732430Y-105966892D01*
X164872773Y-106064433D01*
X165029389Y-106132856D01*
X165196312Y-106169557D01*
X165367184Y-106173136D01*
X165535498Y-106143458D01*
X165694841Y-106081653D01*
X165839145Y-105990074D01*
X165957885Y-105877000D01*
X169060998Y-105877000D01*
X169323000Y-106139002D01*
X169323000Y-109446099D01*
X169232603Y-109578120D01*
X169165275Y-109735210D01*
X169129741Y-109902385D01*
X169127354Y-110073278D01*
X169158207Y-110241380D01*
X169221123Y-110400288D01*
X169313706Y-110543950D01*
X169432430Y-110666892D01*
X169572773Y-110764433D01*
X169729389Y-110832856D01*
X169896312Y-110869557D01*
X170067184Y-110873136D01*
X170235498Y-110843458D01*
X170394841Y-110781653D01*
X170539145Y-110690074D01*
X170662913Y-110572212D01*
X170761431Y-110432553D01*
X170830947Y-110276419D01*
X170868812Y-110109756D01*
X170871154Y-109942038D01*
X170996312Y-109969557D01*
X171167184Y-109973136D01*
X171335498Y-109943458D01*
X171494841Y-109881653D01*
X171639145Y-109790074D01*
X171762913Y-109672212D01*
X171861431Y-109532553D01*
X171930947Y-109376419D01*
X171968812Y-109209756D01*
X171971538Y-109014545D01*
X171971538Y-113403000D01*
X171670000Y-113403000D01*
X171584790Y-113411355D01*
X171499477Y-113418819D01*
X171494794Y-113420179D01*
X171489945Y-113420655D01*
X171407972Y-113445403D01*
X171325743Y-113469294D01*
X171321417Y-113471536D01*
X171316748Y-113472946D01*
X171241129Y-113513153D01*
X171165120Y-113552552D01*
X171161309Y-113555593D01*
X171157006Y-113557882D01*
X171090674Y-113611980D01*
X171023728Y-113665423D01*
X171016942Y-113672115D01*
X171016804Y-113672228D01*
X171016698Y-113672356D01*
X171014512Y-113674512D01*
X167971538Y-116717486D01*
X167971538Y-114014545D01*
X167938341Y-113846890D01*
X167873212Y-113688876D01*
X167778632Y-113546521D01*
X167658203Y-113425248D01*
X167516512Y-113329677D01*
X167358957Y-113263446D01*
X167191537Y-113229080D01*
X167020632Y-113227887D01*
X166852749Y-113259912D01*
X166694284Y-113323936D01*
X166551272Y-113417520D01*
X166443560Y-113523000D01*
X164255274Y-113523000D01*
X164158203Y-113425248D01*
X164016512Y-113329677D01*
X163858957Y-113263446D01*
X163691537Y-113229080D01*
X163520632Y-113227887D01*
X163352749Y-113259912D01*
X163194284Y-113323936D01*
X163051272Y-113417520D01*
X162929162Y-113537100D01*
X162832603Y-113678120D01*
X162765275Y-113835210D01*
X162729741Y-114002385D01*
X162727354Y-114173278D01*
X162758207Y-114341380D01*
X162821123Y-114500288D01*
X162913706Y-114643950D01*
X163032430Y-114766892D01*
X163172773Y-114864433D01*
X163329389Y-114932856D01*
X163496312Y-114969557D01*
X163667184Y-114973136D01*
X163835498Y-114943458D01*
X163994841Y-114881653D01*
X164139145Y-114790074D01*
X164257885Y-114677000D01*
X166445622Y-114677000D01*
X166532430Y-114766892D01*
X166672773Y-114864433D01*
X166829389Y-114932856D01*
X166996312Y-114969557D01*
X167167184Y-114973136D01*
X167335498Y-114943458D01*
X167494841Y-114881653D01*
X167639145Y-114790074D01*
X167762913Y-114672212D01*
X167861431Y-114532553D01*
X167930947Y-114376419D01*
X167968812Y-114209756D01*
X167971538Y-114014545D01*
X167971538Y-116717486D01*
X165416024Y-119273000D01*
X163300000Y-119273000D01*
X163214790Y-119281355D01*
X163129477Y-119288819D01*
X163124794Y-119290179D01*
X163119945Y-119290655D01*
X163037985Y-119315399D01*
X162955742Y-119339294D01*
X162951414Y-119341537D01*
X162946748Y-119342946D01*
X162871168Y-119383132D01*
X162795119Y-119422552D01*
X162791306Y-119425595D01*
X162787006Y-119427882D01*
X162720666Y-119481987D01*
X162653728Y-119535424D01*
X162646943Y-119542114D01*
X162646804Y-119542228D01*
X162646696Y-119542357D01*
X162644512Y-119544512D01*
X161174512Y-121014512D01*
X161120159Y-121080682D01*
X161065120Y-121146276D01*
X161062771Y-121150547D01*
X161059678Y-121154314D01*
X161019202Y-121229799D01*
X160977962Y-121304816D01*
X160976489Y-121309458D01*
X160974184Y-121313758D01*
X160949147Y-121395649D01*
X160923257Y-121477266D01*
X160922713Y-121482113D01*
X160921289Y-121486772D01*
X160912641Y-121571901D01*
X160903090Y-121657057D01*
X160903023Y-121666589D01*
X160903006Y-121666764D01*
X160903021Y-121666926D01*
X160903000Y-121670000D01*
X160903000Y-122847138D01*
X160765109Y-123011472D01*
X160672304Y-123180281D01*
X160581954Y-122985679D01*
X160408486Y-122748271D01*
X160192035Y-122549267D01*
X159940919Y-122396314D01*
X159664789Y-122295291D01*
X159649026Y-122292642D01*
X159417000Y-122413783D01*
X159417000Y-123773000D01*
X159437000Y-123773000D01*
X159437000Y-124027000D01*
X159417000Y-124027000D01*
X159417000Y-124047000D01*
X159371538Y-124047000D01*
X159371538Y-112814545D01*
X159338341Y-112646890D01*
X159273212Y-112488876D01*
X159178632Y-112346521D01*
X159058203Y-112225248D01*
X158916512Y-112129677D01*
X158758957Y-112063446D01*
X158591537Y-112029080D01*
X158444052Y-112028050D01*
X158277000Y-111860998D01*
X158277000Y-103600000D01*
X158271799Y-103546957D01*
X158267153Y-103493860D01*
X158266307Y-103490949D01*
X158266011Y-103487927D01*
X158250598Y-103436876D01*
X158235736Y-103385720D01*
X158234340Y-103383026D01*
X158233463Y-103380122D01*
X158208435Y-103333050D01*
X158183913Y-103285743D01*
X158182020Y-103283372D01*
X158180596Y-103280693D01*
X158146913Y-103239394D01*
X158113657Y-103197735D01*
X158109492Y-103193511D01*
X158109422Y-103193426D01*
X158109342Y-103193360D01*
X158108000Y-103191999D01*
X157669596Y-102753594D01*
X157671538Y-102614545D01*
X157638341Y-102446890D01*
X157573212Y-102288876D01*
X157478632Y-102146521D01*
X157358203Y-102025248D01*
X157216512Y-101929677D01*
X157058957Y-101863446D01*
X156891537Y-101829080D01*
X156720632Y-101827887D01*
X156552749Y-101859912D01*
X156394284Y-101923936D01*
X156251272Y-102017520D01*
X156129162Y-102137100D01*
X156032603Y-102278120D01*
X155965275Y-102435210D01*
X155929741Y-102602385D01*
X155927354Y-102773278D01*
X155958207Y-102941380D01*
X156021123Y-103100288D01*
X156113706Y-103243950D01*
X156232430Y-103366892D01*
X156372773Y-103464433D01*
X156529389Y-103532856D01*
X156696312Y-103569557D01*
X156856919Y-103572921D01*
X157123000Y-103839001D01*
X157123000Y-112100000D01*
X157128200Y-112153042D01*
X157132847Y-112206140D01*
X157133692Y-112209050D01*
X157133989Y-112212073D01*
X157149401Y-112263123D01*
X157164264Y-112314280D01*
X157165659Y-112316973D01*
X157166537Y-112319878D01*
X157191564Y-112366949D01*
X157216087Y-112414257D01*
X157217979Y-112416627D01*
X157219404Y-112419307D01*
X157253086Y-112460605D01*
X157286343Y-112502265D01*
X157290511Y-112506492D01*
X157290578Y-112506574D01*
X157290653Y-112506636D01*
X157291999Y-112508001D01*
X157629143Y-112845145D01*
X157627354Y-112973278D01*
X157658207Y-113141380D01*
X157721123Y-113300288D01*
X157813706Y-113443950D01*
X157932430Y-113566892D01*
X158072773Y-113664433D01*
X158229389Y-113732856D01*
X158396312Y-113769557D01*
X158567184Y-113773136D01*
X158735498Y-113743458D01*
X158894841Y-113681653D01*
X159039145Y-113590074D01*
X159162913Y-113472212D01*
X159261431Y-113332553D01*
X159330947Y-113176419D01*
X159368812Y-113009756D01*
X159371538Y-112814545D01*
X159371538Y-124047000D01*
X159163000Y-124047000D01*
X159163000Y-124027000D01*
X159163000Y-123773000D01*
X159163000Y-122413783D01*
X158930974Y-122292642D01*
X158915211Y-122295291D01*
X158639081Y-122396314D01*
X158387965Y-122549267D01*
X158171514Y-122748271D01*
X158020000Y-122955632D01*
X157868486Y-122748271D01*
X157652035Y-122549267D01*
X157400919Y-122396314D01*
X157124789Y-122295291D01*
X157109026Y-122292642D01*
X156877000Y-122413783D01*
X156877000Y-123773000D01*
X157949075Y-123773000D01*
X158090925Y-123773000D01*
X159163000Y-123773000D01*
X159163000Y-124027000D01*
X158090925Y-124027000D01*
X157949075Y-124027000D01*
X156877000Y-124027000D01*
X156877000Y-124047000D01*
X156623000Y-124047000D01*
X156623000Y-124027000D01*
X156623000Y-123773000D01*
X156623000Y-122413783D01*
X156390974Y-122292642D01*
X156375211Y-122295291D01*
X156099081Y-122396314D01*
X155847965Y-122549267D01*
X155631514Y-122748271D01*
X155458046Y-122985679D01*
X155334227Y-123252367D01*
X155264815Y-123538086D01*
X155409075Y-123773000D01*
X156623000Y-123773000D01*
X156623000Y-124027000D01*
X155409075Y-124027000D01*
X155264815Y-124261914D01*
X155334227Y-124547633D01*
X155458046Y-124814321D01*
X155631514Y-125051729D01*
X155847965Y-125250733D01*
X156099081Y-125403686D01*
X156375211Y-125504709D01*
X156390974Y-125507358D01*
X156622998Y-125386218D01*
X156622998Y-125523000D01*
X155000000Y-125523000D01*
X154977000Y-125523000D01*
X154977000Y-99477000D01*
X155000000Y-99477000D01*
X175523000Y-99477000D01*
X175523000Y-108317800D01*
G36*
X175523000Y-125523000D02*
X159417002Y-125523000D01*
X159417002Y-125386218D01*
X159649026Y-125507358D01*
X159664789Y-125504709D01*
X159940919Y-125403686D01*
X160192035Y-125250733D01*
X160408486Y-125051729D01*
X160581954Y-124814321D01*
X160672730Y-124618801D01*
X160755032Y-124773589D01*
X160914228Y-124968783D01*
X161108306Y-125129338D01*
X161329872Y-125249139D01*
X161570489Y-125323622D01*
X161820990Y-125349951D01*
X162071834Y-125327122D01*
X162313467Y-125256005D01*
X162536685Y-125139310D01*
X162732986Y-124981480D01*
X162894891Y-124788528D01*
X163016236Y-124567803D01*
X163092397Y-124327713D01*
X163099500Y-124264384D01*
X163103979Y-124310061D01*
X163176781Y-124551191D01*
X163295032Y-124773589D01*
X163454228Y-124968783D01*
X163648306Y-125129338D01*
X163869872Y-125249139D01*
X164110489Y-125323622D01*
X164360990Y-125349951D01*
X164611834Y-125327122D01*
X164853467Y-125256005D01*
X165076685Y-125139310D01*
X165272986Y-124981480D01*
X165434891Y-124788528D01*
X165556236Y-124567803D01*
X165632397Y-124327713D01*
X165639500Y-124264384D01*
X165643979Y-124310061D01*
X165716781Y-124551191D01*
X165835032Y-124773589D01*
X165994228Y-124968783D01*
X166188306Y-125129338D01*
X166409872Y-125249139D01*
X166650489Y-125323622D01*
X166900990Y-125349951D01*
X167151834Y-125327122D01*
X167393467Y-125256005D01*
X167616685Y-125139310D01*
X167812986Y-124981480D01*
X167974891Y-124788528D01*
X168096236Y-124567803D01*
X168159400Y-124368684D01*
X168159400Y-124958056D01*
X168175809Y-125040551D01*
X168207998Y-125118261D01*
X168254728Y-125188197D01*
X168314203Y-125247673D01*
X168384140Y-125294403D01*
X168461849Y-125326591D01*
X168544344Y-125343000D01*
X168628456Y-125343000D01*
X170355656Y-125343000D01*
X170438151Y-125326591D01*
X170515861Y-125294402D01*
X170585797Y-125247672D01*
X170645273Y-125188197D01*
X170692003Y-125118260D01*
X170724191Y-125040551D01*
X170740600Y-124958056D01*
X170740600Y-124873944D01*
X170740600Y-122841944D01*
X170724191Y-122759449D01*
X170692002Y-122681739D01*
X170645272Y-122611803D01*
X170585797Y-122552327D01*
X170515860Y-122505597D01*
X170438151Y-122473409D01*
X170355656Y-122457000D01*
X170271544Y-122457000D01*
X168544344Y-122457000D01*
X168461849Y-122473409D01*
X168384139Y-122505598D01*
X168314203Y-122552328D01*
X168254727Y-122611803D01*
X168207997Y-122681740D01*
X168175809Y-122759449D01*
X168159400Y-122841944D01*
X168159400Y-122926056D01*
X168159400Y-123434888D01*
X168103219Y-123248809D01*
X167984968Y-123026411D01*
X167825772Y-122831217D01*
X167631694Y-122670662D01*
X167410128Y-122550861D01*
X167169511Y-122476378D01*
X166919010Y-122450049D01*
X166668166Y-122472878D01*
X166426533Y-122543995D01*
X166203315Y-122660690D01*
X166007014Y-122818520D01*
X165845109Y-123011472D01*
X165723764Y-123232197D01*
X165647603Y-123472287D01*
X165640499Y-123535615D01*
X165636021Y-123489939D01*
X165563219Y-123248809D01*
X165444968Y-123026411D01*
X165285772Y-122831217D01*
X165091694Y-122670662D01*
X164870128Y-122550861D01*
X164629511Y-122476378D01*
X164379010Y-122450049D01*
X164128166Y-122472878D01*
X163886533Y-122543995D01*
X163663315Y-122660690D01*
X163467014Y-122818520D01*
X163305109Y-123011472D01*
X163183764Y-123232197D01*
X163107603Y-123472287D01*
X163100499Y-123535615D01*
X163096021Y-123489939D01*
X163023219Y-123248809D01*
X162904968Y-123026411D01*
X162757000Y-122844983D01*
X162757000Y-122053976D01*
X163683976Y-121127000D01*
X165800000Y-121127000D01*
X165885209Y-121118644D01*
X165970523Y-121111181D01*
X165975205Y-121109820D01*
X165980055Y-121109345D01*
X166062014Y-121084600D01*
X166144258Y-121060706D01*
X166148585Y-121058462D01*
X166153252Y-121057054D01*
X166228831Y-121016867D01*
X166304881Y-120977448D01*
X166308693Y-120974404D01*
X166312994Y-120972118D01*
X166379333Y-120918012D01*
X166446272Y-120864576D01*
X166453056Y-120857885D01*
X166453196Y-120857772D01*
X166453303Y-120857642D01*
X166455488Y-120855488D01*
X172053976Y-115257000D01*
X173147138Y-115257000D01*
X173311472Y-115394891D01*
X173532197Y-115516236D01*
X173772287Y-115592397D01*
X173835615Y-115599500D01*
X173789939Y-115603979D01*
X173548809Y-115676781D01*
X173326411Y-115795032D01*
X173131217Y-115954228D01*
X172970662Y-116148306D01*
X172850861Y-116369872D01*
X172776378Y-116610489D01*
X172750049Y-116860990D01*
X172772878Y-117111834D01*
X172843995Y-117353467D01*
X172960690Y-117576685D01*
X173118520Y-117772986D01*
X173311472Y-117934891D01*
X173532197Y-118056236D01*
X173772287Y-118132397D01*
X173835615Y-118139500D01*
X173789939Y-118143979D01*
X173548809Y-118216781D01*
X173326411Y-118335032D01*
X173131217Y-118494228D01*
X172970662Y-118688306D01*
X172850861Y-118909872D01*
X172776378Y-119150489D01*
X172750049Y-119400990D01*
X172772878Y-119651834D01*
X172843995Y-119893467D01*
X172960690Y-120116685D01*
X173118520Y-120312986D01*
X173311472Y-120474891D01*
X173532197Y-120596236D01*
X173731315Y-120659400D01*
X173141944Y-120659400D01*
X173059449Y-120675809D01*
X172981739Y-120707998D01*
X172911803Y-120754728D01*
X172852327Y-120814203D01*
X172805597Y-120884140D01*
X172773409Y-120961849D01*
X172757000Y-121044344D01*
X172757000Y-121128456D01*
X172757000Y-122855656D01*
X172773409Y-122938151D01*
X172805598Y-123015861D01*
X172852328Y-123085797D01*
X172911803Y-123145273D01*
X172981740Y-123192003D01*
X173059449Y-123224191D01*
X173141944Y-123240600D01*
X173226056Y-123240600D01*
X175258056Y-123240600D01*
X175340551Y-123224191D01*
X175418261Y-123192002D01*
X175488197Y-123145272D01*
X175523000Y-123110469D01*
X175523000Y-125523000D01*
X175523000Y-125523000D01*
G37*
X175523000Y-125523000D02*
X159417002Y-125523000D01*
X159417002Y-125386218D01*
X159649026Y-125507358D01*
X159664789Y-125504709D01*
X159940919Y-125403686D01*
X160192035Y-125250733D01*
X160408486Y-125051729D01*
X160581954Y-124814321D01*
X160672730Y-124618801D01*
X160755032Y-124773589D01*
X160914228Y-124968783D01*
X161108306Y-125129338D01*
X161329872Y-125249139D01*
X161570489Y-125323622D01*
X161820990Y-125349951D01*
X162071834Y-125327122D01*
X162313467Y-125256005D01*
X162536685Y-125139310D01*
X162732986Y-124981480D01*
X162894891Y-124788528D01*
X163016236Y-124567803D01*
X163092397Y-124327713D01*
X163099500Y-124264384D01*
X163103979Y-124310061D01*
X163176781Y-124551191D01*
X163295032Y-124773589D01*
X163454228Y-124968783D01*
X163648306Y-125129338D01*
X163869872Y-125249139D01*
X164110489Y-125323622D01*
X164360990Y-125349951D01*
X164611834Y-125327122D01*
X164853467Y-125256005D01*
X165076685Y-125139310D01*
X165272986Y-124981480D01*
X165434891Y-124788528D01*
X165556236Y-124567803D01*
X165632397Y-124327713D01*
X165639500Y-124264384D01*
X165643979Y-124310061D01*
X165716781Y-124551191D01*
X165835032Y-124773589D01*
X165994228Y-124968783D01*
X166188306Y-125129338D01*
X166409872Y-125249139D01*
X166650489Y-125323622D01*
X166900990Y-125349951D01*
X167151834Y-125327122D01*
X167393467Y-125256005D01*
X167616685Y-125139310D01*
X167812986Y-124981480D01*
X167974891Y-124788528D01*
X168096236Y-124567803D01*
X168159400Y-124368684D01*
X168159400Y-124958056D01*
X168175809Y-125040551D01*
X168207998Y-125118261D01*
X168254728Y-125188197D01*
X168314203Y-125247673D01*
X168384140Y-125294403D01*
X168461849Y-125326591D01*
X168544344Y-125343000D01*
X168628456Y-125343000D01*
X170355656Y-125343000D01*
X170438151Y-125326591D01*
X170515861Y-125294402D01*
X170585797Y-125247672D01*
X170645273Y-125188197D01*
X170692003Y-125118260D01*
X170724191Y-125040551D01*
X170740600Y-124958056D01*
X170740600Y-124873944D01*
X170740600Y-122841944D01*
X170724191Y-122759449D01*
X170692002Y-122681739D01*
X170645272Y-122611803D01*
X170585797Y-122552327D01*
X170515860Y-122505597D01*
X170438151Y-122473409D01*
X170355656Y-122457000D01*
X170271544Y-122457000D01*
X168544344Y-122457000D01*
X168461849Y-122473409D01*
X168384139Y-122505598D01*
X168314203Y-122552328D01*
X168254727Y-122611803D01*
X168207997Y-122681740D01*
X168175809Y-122759449D01*
X168159400Y-122841944D01*
X168159400Y-122926056D01*
X168159400Y-123434888D01*
X168103219Y-123248809D01*
X167984968Y-123026411D01*
X167825772Y-122831217D01*
X167631694Y-122670662D01*
X167410128Y-122550861D01*
X167169511Y-122476378D01*
X166919010Y-122450049D01*
X166668166Y-122472878D01*
X166426533Y-122543995D01*
X166203315Y-122660690D01*
X166007014Y-122818520D01*
X165845109Y-123011472D01*
X165723764Y-123232197D01*
X165647603Y-123472287D01*
X165640499Y-123535615D01*
X165636021Y-123489939D01*
X165563219Y-123248809D01*
X165444968Y-123026411D01*
X165285772Y-122831217D01*
X165091694Y-122670662D01*
X164870128Y-122550861D01*
X164629511Y-122476378D01*
X164379010Y-122450049D01*
X164128166Y-122472878D01*
X163886533Y-122543995D01*
X163663315Y-122660690D01*
X163467014Y-122818520D01*
X163305109Y-123011472D01*
X163183764Y-123232197D01*
X163107603Y-123472287D01*
X163100499Y-123535615D01*
X163096021Y-123489939D01*
X163023219Y-123248809D01*
X162904968Y-123026411D01*
X162757000Y-122844983D01*
X162757000Y-122053976D01*
X163683976Y-121127000D01*
X165800000Y-121127000D01*
X165885209Y-121118644D01*
X165970523Y-121111181D01*
X165975205Y-121109820D01*
X165980055Y-121109345D01*
X166062014Y-121084600D01*
X166144258Y-121060706D01*
X166148585Y-121058462D01*
X166153252Y-121057054D01*
X166228831Y-121016867D01*
X166304881Y-120977448D01*
X166308693Y-120974404D01*
X166312994Y-120972118D01*
X166379333Y-120918012D01*
X166446272Y-120864576D01*
X166453056Y-120857885D01*
X166453196Y-120857772D01*
X166453303Y-120857642D01*
X166455488Y-120855488D01*
X172053976Y-115257000D01*
X173147138Y-115257000D01*
X173311472Y-115394891D01*
X173532197Y-115516236D01*
X173772287Y-115592397D01*
X173835615Y-115599500D01*
X173789939Y-115603979D01*
X173548809Y-115676781D01*
X173326411Y-115795032D01*
X173131217Y-115954228D01*
X172970662Y-116148306D01*
X172850861Y-116369872D01*
X172776378Y-116610489D01*
X172750049Y-116860990D01*
X172772878Y-117111834D01*
X172843995Y-117353467D01*
X172960690Y-117576685D01*
X173118520Y-117772986D01*
X173311472Y-117934891D01*
X173532197Y-118056236D01*
X173772287Y-118132397D01*
X173835615Y-118139500D01*
X173789939Y-118143979D01*
X173548809Y-118216781D01*
X173326411Y-118335032D01*
X173131217Y-118494228D01*
X172970662Y-118688306D01*
X172850861Y-118909872D01*
X172776378Y-119150489D01*
X172750049Y-119400990D01*
X172772878Y-119651834D01*
X172843995Y-119893467D01*
X172960690Y-120116685D01*
X173118520Y-120312986D01*
X173311472Y-120474891D01*
X173532197Y-120596236D01*
X173731315Y-120659400D01*
X173141944Y-120659400D01*
X173059449Y-120675809D01*
X172981739Y-120707998D01*
X172911803Y-120754728D01*
X172852327Y-120814203D01*
X172805597Y-120884140D01*
X172773409Y-120961849D01*
X172757000Y-121044344D01*
X172757000Y-121128456D01*
X172757000Y-122855656D01*
X172773409Y-122938151D01*
X172805598Y-123015861D01*
X172852328Y-123085797D01*
X172911803Y-123145273D01*
X172981740Y-123192003D01*
X173059449Y-123224191D01*
X173141944Y-123240600D01*
X173226056Y-123240600D01*
X175258056Y-123240600D01*
X175340551Y-123224191D01*
X175418261Y-123192002D01*
X175488197Y-123145272D01*
X175523000Y-123110469D01*
X175523000Y-125523000D01*
M02*
