G04 #@! TF.FileFunction,Soldermask,Top*
%FSLAX46Y46*%
G04 Gerber Fmt 4.6, Leading zero omitted, Abs format (unit mm)*
G04 Created by KiCad (PCBNEW (2014-11-21 BZR 5297)-product) date Mo 02 Feb 2015 01:28:56 CET*
%MOMM*%
G01*
G04 APERTURE LIST*
%ADD10C,0.150000*%
%ADD11R,1.250000X1.000000*%
%ADD12R,0.500000X0.600000*%
%ADD13R,0.600000X0.500000*%
%ADD14R,0.797560X0.797560*%
%ADD15R,0.800100X0.800100*%
%ADD16R,1.600000X0.550000*%
%ADD17R,0.550000X1.600000*%
%ADD18R,2.032000X1.727200*%
%ADD19O,2.032000X1.727200*%
%ADD20R,1.727200X2.032000*%
%ADD21O,1.727200X2.032000*%
%ADD22R,0.500000X0.900000*%
%ADD23R,0.900000X0.500000*%
%ADD24R,0.508000X0.762000*%
%ADD25R,0.600000X1.800000*%
G04 APERTURE END LIST*
D10*
D11*
X161900000Y-121200000D03*
X161900000Y-119200000D03*
D12*
X159900000Y-120750000D03*
X159900000Y-119650000D03*
X161800000Y-114650000D03*
X161800000Y-115750000D03*
X156200000Y-115450000D03*
X156200000Y-116550000D03*
D11*
X156500000Y-113100000D03*
X156500000Y-111100000D03*
D12*
X155900000Y-107550000D03*
X155900000Y-106450000D03*
X170400000Y-105750000D03*
X170400000Y-106850000D03*
X171700000Y-105750000D03*
X171700000Y-106850000D03*
D13*
X157050000Y-105100000D03*
X155950000Y-105100000D03*
D12*
X169800000Y-120250000D03*
X169800000Y-121350000D03*
D14*
X161550700Y-100200000D03*
X163049300Y-100200000D03*
D15*
X158200760Y-121001040D03*
X158200760Y-119598960D03*
X156201780Y-120300000D03*
D16*
X167950000Y-109900000D03*
X167950000Y-109100000D03*
X167950000Y-108300000D03*
X167950000Y-107500000D03*
X167950000Y-106700000D03*
X167950000Y-105900000D03*
X167950000Y-105100000D03*
X167950000Y-104300000D03*
D17*
X166500000Y-102850000D03*
X165700000Y-102850000D03*
X164900000Y-102850000D03*
X164100000Y-102850000D03*
X163300000Y-102850000D03*
X162500000Y-102850000D03*
X161700000Y-102850000D03*
X160900000Y-102850000D03*
D16*
X159450000Y-104300000D03*
X159450000Y-105100000D03*
X159450000Y-105900000D03*
X159450000Y-106700000D03*
X159450000Y-107500000D03*
X159450000Y-108300000D03*
X159450000Y-109100000D03*
X159450000Y-109900000D03*
D17*
X160900000Y-111350000D03*
X161700000Y-111350000D03*
X162500000Y-111350000D03*
X163300000Y-111350000D03*
X164100000Y-111350000D03*
X164900000Y-111350000D03*
X165700000Y-111350000D03*
X166500000Y-111350000D03*
D18*
X174200000Y-121950000D03*
D19*
X174200000Y-119410000D03*
X174200000Y-116870000D03*
X174200000Y-114330000D03*
X174200000Y-111790000D03*
X174200000Y-109250000D03*
D20*
X169450000Y-123900000D03*
D21*
X166910000Y-123900000D03*
X164370000Y-123900000D03*
X161830000Y-123900000D03*
X159290000Y-123900000D03*
X156750000Y-123900000D03*
D22*
X171450000Y-116900000D03*
X169950000Y-116900000D03*
D23*
X164300000Y-121350000D03*
X164300000Y-119850000D03*
X166200000Y-121350000D03*
X166200000Y-119850000D03*
D22*
X160150000Y-100200000D03*
X158650000Y-100200000D03*
D23*
X167800000Y-116050000D03*
X167800000Y-117550000D03*
D24*
X158147500Y-117170000D03*
X160052500Y-117170000D03*
X158147500Y-114630000D03*
X159100000Y-117170000D03*
X160052500Y-114630000D03*
D25*
X170150000Y-102100000D03*
X171100000Y-102100000D03*
X172049999Y-102100000D03*
M02*
