G04 #@! TF.FileFunction,Legend,Top*
%FSLAX46Y46*%
G04 Gerber Fmt 4.6, Leading zero omitted, Abs format (unit mm)*
G04 Created by KiCad (PCBNEW (2014-11-21 BZR 5297)-product) date Mo 02 Feb 2015 01:28:56 CET*
%MOMM*%
G01*
G04 APERTURE LIST*
%ADD10C,0.150000*%
%ADD11C,0.200000*%
%ADD12C,0.300000*%
%ADD13R,1.250000X1.000000*%
%ADD14R,0.500000X0.600000*%
%ADD15R,0.600000X0.500000*%
%ADD16R,0.797560X0.797560*%
%ADD17R,0.800100X0.800100*%
%ADD18R,1.600000X0.550000*%
%ADD19R,0.550000X1.600000*%
%ADD20R,2.032000X1.727200*%
%ADD21O,2.032000X1.727200*%
%ADD22R,1.727200X2.032000*%
%ADD23O,1.727200X2.032000*%
%ADD24R,0.500000X0.900000*%
%ADD25R,0.900000X0.500000*%
%ADD26R,0.508000X0.762000*%
%ADD27R,0.600000X1.800000*%
G04 APERTURE END LIST*
D10*
D11*
X167309523Y-99500000D02*
X167214285Y-99452381D01*
X167071428Y-99452381D01*
X166928570Y-99500000D01*
X166833332Y-99595238D01*
X166785713Y-99690476D01*
X166738094Y-99880952D01*
X166738094Y-100023810D01*
X166785713Y-100214286D01*
X166833332Y-100309524D01*
X166928570Y-100404762D01*
X167071428Y-100452381D01*
X167166666Y-100452381D01*
X167309523Y-100404762D01*
X167357142Y-100357143D01*
X167357142Y-100023810D01*
X167166666Y-100023810D01*
X167785713Y-100452381D02*
X167785713Y-99452381D01*
X168214285Y-100452381D02*
X168214285Y-99928571D01*
X168166666Y-99833333D01*
X168071428Y-99785714D01*
X167928570Y-99785714D01*
X167833332Y-99833333D01*
X167785713Y-99880952D01*
X169071428Y-100404762D02*
X168976190Y-100452381D01*
X168785713Y-100452381D01*
X168690475Y-100404762D01*
X168642856Y-100309524D01*
X168642856Y-99928571D01*
X168690475Y-99833333D01*
X168785713Y-99785714D01*
X168976190Y-99785714D01*
X169071428Y-99833333D01*
X169119047Y-99928571D01*
X169119047Y-100023810D01*
X168642856Y-100119048D01*
X169404761Y-99785714D02*
X169785713Y-99785714D01*
X169547618Y-99452381D02*
X169547618Y-100309524D01*
X169595237Y-100404762D01*
X169690475Y-100452381D01*
X169785713Y-100452381D01*
X169976190Y-99785714D02*
X170357142Y-99785714D01*
X170119047Y-99452381D02*
X170119047Y-100309524D01*
X170166666Y-100404762D01*
X170261904Y-100452381D01*
X170357142Y-100452381D01*
X170833333Y-100452381D02*
X170738095Y-100404762D01*
X170690476Y-100357143D01*
X170642857Y-100261905D01*
X170642857Y-99976190D01*
X170690476Y-99880952D01*
X170738095Y-99833333D01*
X170833333Y-99785714D01*
X170976191Y-99785714D01*
X171071429Y-99833333D01*
X171119048Y-99880952D01*
X171166667Y-99976190D01*
X171166667Y-100261905D01*
X171119048Y-100357143D01*
X171071429Y-100404762D01*
X170976191Y-100452381D01*
X170833333Y-100452381D01*
X171595238Y-100452381D02*
X171595238Y-99452381D01*
X171976191Y-99452381D01*
X172071429Y-99500000D01*
X172119048Y-99547619D01*
X172166667Y-99642857D01*
X172166667Y-99785714D01*
X172119048Y-99880952D01*
X172071429Y-99928571D01*
X171976191Y-99976190D01*
X171595238Y-99976190D01*
X172595238Y-100452381D02*
X172595238Y-99785714D01*
X172595238Y-99976190D02*
X172642857Y-99880952D01*
X172690476Y-99833333D01*
X172785714Y-99785714D01*
X172880953Y-99785714D01*
X173357143Y-100452381D02*
X173261905Y-100404762D01*
X173214286Y-100357143D01*
X173166667Y-100261905D01*
X173166667Y-99976190D01*
X173214286Y-99880952D01*
X173261905Y-99833333D01*
X173357143Y-99785714D01*
X173500001Y-99785714D01*
X173595239Y-99833333D01*
X173642858Y-99880952D01*
X173690477Y-99976190D01*
X173690477Y-100261905D01*
X173642858Y-100357143D01*
X173595239Y-100404762D01*
X173500001Y-100452381D01*
X173357143Y-100452381D01*
X174023810Y-100452381D02*
X174547620Y-99785714D01*
X174023810Y-99785714D02*
X174547620Y-100452381D01*
X174833334Y-99785714D02*
X175071429Y-100452381D01*
X175309525Y-99785714D02*
X175071429Y-100452381D01*
X174976191Y-100690476D01*
X174928572Y-100738095D01*
X174833334Y-100785714D01*
D12*
X173450000Y-106542857D02*
X173378571Y-106685714D01*
X173378571Y-106900000D01*
X173450000Y-107114285D01*
X173592857Y-107257143D01*
X173735714Y-107328571D01*
X174021429Y-107400000D01*
X174235714Y-107400000D01*
X174521429Y-107328571D01*
X174664286Y-107257143D01*
X174807143Y-107114285D01*
X174878571Y-106900000D01*
X174878571Y-106757143D01*
X174807143Y-106542857D01*
X174735714Y-106471428D01*
X174235714Y-106471428D01*
X174235714Y-106757143D01*
X174878571Y-105828571D02*
X173378571Y-105828571D01*
X174878571Y-104971428D01*
X173378571Y-104971428D01*
X174878571Y-104257142D02*
X173378571Y-104257142D01*
X173378571Y-103899999D01*
X173450000Y-103685714D01*
X173592857Y-103542856D01*
X173735714Y-103471428D01*
X174021429Y-103399999D01*
X174235714Y-103399999D01*
X174521429Y-103471428D01*
X174664286Y-103542856D01*
X174807143Y-103685714D01*
X174878571Y-103899999D01*
X174878571Y-104257142D01*
X171285715Y-125078571D02*
X171285715Y-123578571D01*
X171642858Y-123578571D01*
X171857143Y-123650000D01*
X172000001Y-123792857D01*
X172071429Y-123935714D01*
X172142858Y-124221429D01*
X172142858Y-124435714D01*
X172071429Y-124721429D01*
X172000001Y-124864286D01*
X171857143Y-125007143D01*
X171642858Y-125078571D01*
X171285715Y-125078571D01*
X172571429Y-123578571D02*
X173428572Y-123578571D01*
X173000001Y-125078571D02*
X173000001Y-123578571D01*
X174785715Y-125078571D02*
X174285715Y-124364286D01*
X173928572Y-125078571D02*
X173928572Y-123578571D01*
X174500000Y-123578571D01*
X174642858Y-123650000D01*
X174714286Y-123721429D01*
X174785715Y-123864286D01*
X174785715Y-124078571D01*
X174714286Y-124221429D01*
X174642858Y-124292857D01*
X174500000Y-124364286D01*
X173928572Y-124364286D01*
D10*
X161050000Y-119700000D02*
X161050000Y-120700000D01*
X162750000Y-120700000D02*
X162750000Y-119700000D01*
X159425000Y-119950000D02*
X159425000Y-120450000D01*
X160375000Y-120450000D02*
X160375000Y-119950000D01*
X162275000Y-115450000D02*
X162275000Y-114950000D01*
X161325000Y-114950000D02*
X161325000Y-115450000D01*
X156675000Y-116250000D02*
X156675000Y-115750000D01*
X155725000Y-115750000D02*
X155725000Y-116250000D01*
X155650000Y-111600000D02*
X155650000Y-112600000D01*
X157350000Y-112600000D02*
X157350000Y-111600000D01*
X155425000Y-106750000D02*
X155425000Y-107250000D01*
X156375000Y-107250000D02*
X156375000Y-106750000D01*
X170875000Y-106550000D02*
X170875000Y-106050000D01*
X169925000Y-106050000D02*
X169925000Y-106550000D01*
X172175000Y-106550000D02*
X172175000Y-106050000D01*
X171225000Y-106050000D02*
X171225000Y-106550000D01*
X156250000Y-105575000D02*
X156750000Y-105575000D01*
X156750000Y-104625000D02*
X156250000Y-104625000D01*
X170275000Y-121050000D02*
X170275000Y-120550000D01*
X169325000Y-120550000D02*
X169325000Y-121050000D01*
X162749580Y-99750420D02*
X162749580Y-100649580D01*
X162749580Y-100649580D02*
X163148360Y-100649580D01*
X163148360Y-99750420D02*
X163148360Y-100649580D01*
X162749580Y-99750420D02*
X163148360Y-99750420D01*
X161451640Y-99750420D02*
X161451640Y-100649580D01*
X161451640Y-100649580D02*
X161850420Y-100649580D01*
X161850420Y-99750420D02*
X161850420Y-100649580D01*
X161451640Y-99750420D02*
X161850420Y-99750420D01*
X162300000Y-99750420D02*
X162300000Y-99900280D01*
X162300000Y-99900280D02*
X162599720Y-99900280D01*
X162599720Y-99750420D02*
X162599720Y-99900280D01*
X162300000Y-99750420D02*
X162599720Y-99750420D01*
X162300000Y-100499720D02*
X162300000Y-100649580D01*
X162300000Y-100649580D02*
X162599720Y-100649580D01*
X162599720Y-100499720D02*
X162599720Y-100649580D01*
X162300000Y-100499720D02*
X162599720Y-100499720D01*
X162300000Y-100050140D02*
X162300000Y-100349860D01*
X162300000Y-100349860D02*
X162599720Y-100349860D01*
X162599720Y-100050140D02*
X162599720Y-100349860D01*
X162300000Y-100050140D02*
X162599720Y-100050140D01*
X162749580Y-99801220D02*
X161850420Y-99801220D01*
X162749580Y-100598780D02*
X161850420Y-100598780D01*
X156549760Y-119400840D02*
X156549760Y-119449100D01*
X157250800Y-121399820D02*
X156549760Y-121399820D01*
X156549760Y-121399820D02*
X156549760Y-121150900D01*
X156549760Y-119400840D02*
X156549760Y-119200180D01*
X156549760Y-119200180D02*
X157250800Y-119200180D01*
X167325000Y-110725000D02*
X167325000Y-110400000D01*
X160075000Y-110725000D02*
X160075000Y-110400000D01*
X160075000Y-103475000D02*
X160075000Y-103800000D01*
X167325000Y-103475000D02*
X167325000Y-103800000D01*
X167325000Y-110725000D02*
X167000000Y-110725000D01*
X167325000Y-103475000D02*
X167000000Y-103475000D01*
X160075000Y-103475000D02*
X160400000Y-103475000D01*
X160075000Y-110725000D02*
X160400000Y-110725000D01*
X167325000Y-110400000D02*
X168750000Y-110400000D01*
X168180000Y-125170000D02*
X155480000Y-125170000D01*
X155480000Y-125170000D02*
X155480000Y-122630000D01*
X155480000Y-122630000D02*
X168180000Y-122630000D01*
X170720000Y-125170000D02*
X168180000Y-125170000D01*
X168180000Y-125170000D02*
X168180000Y-122630000D01*
X170720000Y-125170000D02*
X170720000Y-122630000D01*
X170720000Y-122630000D02*
X168180000Y-122630000D01*
X170200000Y-116225000D02*
X171200000Y-116225000D01*
X171200000Y-117575000D02*
X170200000Y-117575000D01*
X164975000Y-120100000D02*
X164975000Y-121100000D01*
X163625000Y-121100000D02*
X163625000Y-120100000D01*
X166875000Y-120100000D02*
X166875000Y-121100000D01*
X165525000Y-121100000D02*
X165525000Y-120100000D01*
X158900000Y-99525000D02*
X159900000Y-99525000D01*
X159900000Y-100875000D02*
X158900000Y-100875000D01*
X167125000Y-117300000D02*
X167125000Y-116300000D01*
X168475000Y-116300000D02*
X168475000Y-117300000D01*
X160624000Y-115011000D02*
X160624000Y-116789000D01*
X160624000Y-116789000D02*
X157576000Y-116789000D01*
X157576000Y-116789000D02*
X157576000Y-115011000D01*
X157576000Y-115011000D02*
X160624000Y-115011000D01*
X169450000Y-102100000D02*
G75*
G03X169450000Y-102100000I-250000J0D01*
G01*
X169500000Y-102750000D02*
X172800000Y-102750000D01*
X172800000Y-102750000D02*
X172800000Y-101450000D01*
X172800000Y-101450000D02*
X169500000Y-101450000D01*
X169500000Y-101450000D02*
X169500000Y-102750000D01*
X160133334Y-122357143D02*
X160085715Y-122404762D01*
X159942858Y-122452381D01*
X159847620Y-122452381D01*
X159704762Y-122404762D01*
X159609524Y-122309524D01*
X159561905Y-122214286D01*
X159514286Y-122023810D01*
X159514286Y-121880952D01*
X159561905Y-121690476D01*
X159609524Y-121595238D01*
X159704762Y-121500000D01*
X159847620Y-121452381D01*
X159942858Y-121452381D01*
X160085715Y-121500000D01*
X160133334Y-121547619D01*
X161085715Y-122452381D02*
X160514286Y-122452381D01*
X160800000Y-122452381D02*
X160800000Y-121452381D01*
X160704762Y-121595238D01*
X160609524Y-121690476D01*
X160514286Y-121738095D01*
X159633334Y-118857143D02*
X159585715Y-118904762D01*
X159442858Y-118952381D01*
X159347620Y-118952381D01*
X159204762Y-118904762D01*
X159109524Y-118809524D01*
X159061905Y-118714286D01*
X159014286Y-118523810D01*
X159014286Y-118380952D01*
X159061905Y-118190476D01*
X159109524Y-118095238D01*
X159204762Y-118000000D01*
X159347620Y-117952381D01*
X159442858Y-117952381D01*
X159585715Y-118000000D01*
X159633334Y-118047619D01*
X160014286Y-118047619D02*
X160061905Y-118000000D01*
X160157143Y-117952381D01*
X160395239Y-117952381D01*
X160490477Y-118000000D01*
X160538096Y-118047619D01*
X160585715Y-118142857D01*
X160585715Y-118238095D01*
X160538096Y-118380952D01*
X159966667Y-118952381D01*
X160585715Y-118952381D01*
X163657143Y-116066666D02*
X163704762Y-116114285D01*
X163752381Y-116257142D01*
X163752381Y-116352380D01*
X163704762Y-116495238D01*
X163609524Y-116590476D01*
X163514286Y-116638095D01*
X163323810Y-116685714D01*
X163180952Y-116685714D01*
X162990476Y-116638095D01*
X162895238Y-116590476D01*
X162800000Y-116495238D01*
X162752381Y-116352380D01*
X162752381Y-116257142D01*
X162800000Y-116114285D01*
X162847619Y-116066666D01*
X162752381Y-115733333D02*
X162752381Y-115114285D01*
X163133333Y-115447619D01*
X163133333Y-115304761D01*
X163180952Y-115209523D01*
X163228571Y-115161904D01*
X163323810Y-115114285D01*
X163561905Y-115114285D01*
X163657143Y-115161904D01*
X163704762Y-115209523D01*
X163752381Y-115304761D01*
X163752381Y-115590476D01*
X163704762Y-115685714D01*
X163657143Y-115733333D01*
X155833334Y-118557143D02*
X155785715Y-118604762D01*
X155642858Y-118652381D01*
X155547620Y-118652381D01*
X155404762Y-118604762D01*
X155309524Y-118509524D01*
X155261905Y-118414286D01*
X155214286Y-118223810D01*
X155214286Y-118080952D01*
X155261905Y-117890476D01*
X155309524Y-117795238D01*
X155404762Y-117700000D01*
X155547620Y-117652381D01*
X155642858Y-117652381D01*
X155785715Y-117700000D01*
X155833334Y-117747619D01*
X156690477Y-117985714D02*
X156690477Y-118652381D01*
X156452381Y-117604762D02*
X156214286Y-118319048D01*
X156833334Y-118319048D01*
X158533334Y-111757143D02*
X158485715Y-111804762D01*
X158342858Y-111852381D01*
X158247620Y-111852381D01*
X158104762Y-111804762D01*
X158009524Y-111709524D01*
X157961905Y-111614286D01*
X157914286Y-111423810D01*
X157914286Y-111280952D01*
X157961905Y-111090476D01*
X158009524Y-110995238D01*
X158104762Y-110900000D01*
X158247620Y-110852381D01*
X158342858Y-110852381D01*
X158485715Y-110900000D01*
X158533334Y-110947619D01*
X159438096Y-110852381D02*
X158961905Y-110852381D01*
X158914286Y-111328571D01*
X158961905Y-111280952D01*
X159057143Y-111233333D01*
X159295239Y-111233333D01*
X159390477Y-111280952D01*
X159438096Y-111328571D01*
X159485715Y-111423810D01*
X159485715Y-111661905D01*
X159438096Y-111757143D01*
X159390477Y-111804762D01*
X159295239Y-111852381D01*
X159057143Y-111852381D01*
X158961905Y-111804762D01*
X158914286Y-111757143D01*
X155733334Y-104357143D02*
X155685715Y-104404762D01*
X155542858Y-104452381D01*
X155447620Y-104452381D01*
X155304762Y-104404762D01*
X155209524Y-104309524D01*
X155161905Y-104214286D01*
X155114286Y-104023810D01*
X155114286Y-103880952D01*
X155161905Y-103690476D01*
X155209524Y-103595238D01*
X155304762Y-103500000D01*
X155447620Y-103452381D01*
X155542858Y-103452381D01*
X155685715Y-103500000D01*
X155733334Y-103547619D01*
X156590477Y-103452381D02*
X156400000Y-103452381D01*
X156304762Y-103500000D01*
X156257143Y-103547619D01*
X156161905Y-103690476D01*
X156114286Y-103880952D01*
X156114286Y-104261905D01*
X156161905Y-104357143D01*
X156209524Y-104404762D01*
X156304762Y-104452381D01*
X156495239Y-104452381D01*
X156590477Y-104404762D01*
X156638096Y-104357143D01*
X156685715Y-104261905D01*
X156685715Y-104023810D01*
X156638096Y-103928571D01*
X156590477Y-103880952D01*
X156495239Y-103833333D01*
X156304762Y-103833333D01*
X156209524Y-103880952D01*
X156161905Y-103928571D01*
X156114286Y-104023810D01*
X170857143Y-104466666D02*
X170904762Y-104514285D01*
X170952381Y-104657142D01*
X170952381Y-104752380D01*
X170904762Y-104895238D01*
X170809524Y-104990476D01*
X170714286Y-105038095D01*
X170523810Y-105085714D01*
X170380952Y-105085714D01*
X170190476Y-105038095D01*
X170095238Y-104990476D01*
X170000000Y-104895238D01*
X169952381Y-104752380D01*
X169952381Y-104657142D01*
X170000000Y-104514285D01*
X170047619Y-104466666D01*
X169952381Y-104133333D02*
X169952381Y-103466666D01*
X170952381Y-103895238D01*
X172157143Y-104466666D02*
X172204762Y-104514285D01*
X172252381Y-104657142D01*
X172252381Y-104752380D01*
X172204762Y-104895238D01*
X172109524Y-104990476D01*
X172014286Y-105038095D01*
X171823810Y-105085714D01*
X171680952Y-105085714D01*
X171490476Y-105038095D01*
X171395238Y-104990476D01*
X171300000Y-104895238D01*
X171252381Y-104752380D01*
X171252381Y-104657142D01*
X171300000Y-104514285D01*
X171347619Y-104466666D01*
X171680952Y-103895238D02*
X171633333Y-103990476D01*
X171585714Y-104038095D01*
X171490476Y-104085714D01*
X171442857Y-104085714D01*
X171347619Y-104038095D01*
X171300000Y-103990476D01*
X171252381Y-103895238D01*
X171252381Y-103704761D01*
X171300000Y-103609523D01*
X171347619Y-103561904D01*
X171442857Y-103514285D01*
X171490476Y-103514285D01*
X171585714Y-103561904D01*
X171633333Y-103609523D01*
X171680952Y-103704761D01*
X171680952Y-103895238D01*
X171728571Y-103990476D01*
X171776190Y-104038095D01*
X171871429Y-104085714D01*
X172061905Y-104085714D01*
X172157143Y-104038095D01*
X172204762Y-103990476D01*
X172252381Y-103895238D01*
X172252381Y-103704761D01*
X172204762Y-103609523D01*
X172157143Y-103561904D01*
X172061905Y-103514285D01*
X171871429Y-103514285D01*
X171776190Y-103561904D01*
X171728571Y-103609523D01*
X171680952Y-103704761D01*
X156133334Y-109157143D02*
X156085715Y-109204762D01*
X155942858Y-109252381D01*
X155847620Y-109252381D01*
X155704762Y-109204762D01*
X155609524Y-109109524D01*
X155561905Y-109014286D01*
X155514286Y-108823810D01*
X155514286Y-108680952D01*
X155561905Y-108490476D01*
X155609524Y-108395238D01*
X155704762Y-108300000D01*
X155847620Y-108252381D01*
X155942858Y-108252381D01*
X156085715Y-108300000D01*
X156133334Y-108347619D01*
X156609524Y-109252381D02*
X156800000Y-109252381D01*
X156895239Y-109204762D01*
X156942858Y-109157143D01*
X157038096Y-109014286D01*
X157085715Y-108823810D01*
X157085715Y-108442857D01*
X157038096Y-108347619D01*
X156990477Y-108300000D01*
X156895239Y-108252381D01*
X156704762Y-108252381D01*
X156609524Y-108300000D01*
X156561905Y-108347619D01*
X156514286Y-108442857D01*
X156514286Y-108680952D01*
X156561905Y-108776190D01*
X156609524Y-108823810D01*
X156704762Y-108871429D01*
X156895239Y-108871429D01*
X156990477Y-108823810D01*
X157038096Y-108776190D01*
X157085715Y-108680952D01*
X171857143Y-121442857D02*
X171904762Y-121490476D01*
X171952381Y-121633333D01*
X171952381Y-121728571D01*
X171904762Y-121871429D01*
X171809524Y-121966667D01*
X171714286Y-122014286D01*
X171523810Y-122061905D01*
X171380952Y-122061905D01*
X171190476Y-122014286D01*
X171095238Y-121966667D01*
X171000000Y-121871429D01*
X170952381Y-121728571D01*
X170952381Y-121633333D01*
X171000000Y-121490476D01*
X171047619Y-121442857D01*
X171952381Y-120490476D02*
X171952381Y-121061905D01*
X171952381Y-120776191D02*
X170952381Y-120776191D01*
X171095238Y-120871429D01*
X171190476Y-120966667D01*
X171238095Y-121061905D01*
X170952381Y-119871429D02*
X170952381Y-119776190D01*
X171000000Y-119680952D01*
X171047619Y-119633333D01*
X171142857Y-119585714D01*
X171333333Y-119538095D01*
X171571429Y-119538095D01*
X171761905Y-119585714D01*
X171857143Y-119633333D01*
X171904762Y-119680952D01*
X171952381Y-119776190D01*
X171952381Y-119871429D01*
X171904762Y-119966667D01*
X171857143Y-120014286D01*
X171761905Y-120061905D01*
X171571429Y-120109524D01*
X171333333Y-120109524D01*
X171142857Y-120061905D01*
X171047619Y-120014286D01*
X171000000Y-119966667D01*
X170952381Y-119871429D01*
X163861905Y-100352381D02*
X163861905Y-99352381D01*
X164100000Y-99352381D01*
X164242858Y-99400000D01*
X164338096Y-99495238D01*
X164385715Y-99590476D01*
X164433334Y-99780952D01*
X164433334Y-99923810D01*
X164385715Y-100114286D01*
X164338096Y-100209524D01*
X164242858Y-100304762D01*
X164100000Y-100352381D01*
X163861905Y-100352381D01*
X165385715Y-100352381D02*
X164814286Y-100352381D01*
X165100000Y-100352381D02*
X165100000Y-99352381D01*
X165004762Y-99495238D01*
X164909524Y-99590476D01*
X164814286Y-99638095D01*
X155161905Y-122552381D02*
X155161905Y-121552381D01*
X155400000Y-121552381D01*
X155542858Y-121600000D01*
X155638096Y-121695238D01*
X155685715Y-121790476D01*
X155733334Y-121980952D01*
X155733334Y-122123810D01*
X155685715Y-122314286D01*
X155638096Y-122409524D01*
X155542858Y-122504762D01*
X155400000Y-122552381D01*
X155161905Y-122552381D01*
X156114286Y-121647619D02*
X156161905Y-121600000D01*
X156257143Y-121552381D01*
X156495239Y-121552381D01*
X156590477Y-121600000D01*
X156638096Y-121647619D01*
X156685715Y-121742857D01*
X156685715Y-121838095D01*
X156638096Y-121980952D01*
X156066667Y-122552381D01*
X156685715Y-122552381D01*
X162723810Y-113602381D02*
X162723810Y-112602381D01*
X163771429Y-113507143D02*
X163723810Y-113554762D01*
X163580953Y-113602381D01*
X163485715Y-113602381D01*
X163342857Y-113554762D01*
X163247619Y-113459524D01*
X163200000Y-113364286D01*
X163152381Y-113173810D01*
X163152381Y-113030952D01*
X163200000Y-112840476D01*
X163247619Y-112745238D01*
X163342857Y-112650000D01*
X163485715Y-112602381D01*
X163580953Y-112602381D01*
X163723810Y-112650000D01*
X163771429Y-112697619D01*
X164723810Y-113602381D02*
X164152381Y-113602381D01*
X164438095Y-113602381D02*
X164438095Y-112602381D01*
X164342857Y-112745238D01*
X164247619Y-112840476D01*
X164152381Y-112888095D01*
X162361905Y-126638381D02*
X162361905Y-125638381D01*
X162742858Y-125638381D01*
X162838096Y-125686000D01*
X162885715Y-125733619D01*
X162933334Y-125828857D01*
X162933334Y-125971714D01*
X162885715Y-126066952D01*
X162838096Y-126114571D01*
X162742858Y-126162190D01*
X162361905Y-126162190D01*
X163314286Y-125733619D02*
X163361905Y-125686000D01*
X163457143Y-125638381D01*
X163695239Y-125638381D01*
X163790477Y-125686000D01*
X163838096Y-125733619D01*
X163885715Y-125828857D01*
X163885715Y-125924095D01*
X163838096Y-126066952D01*
X163266667Y-126638381D01*
X163885715Y-126638381D01*
X170533334Y-119252381D02*
X170200000Y-118776190D01*
X169961905Y-119252381D02*
X169961905Y-118252381D01*
X170342858Y-118252381D01*
X170438096Y-118300000D01*
X170485715Y-118347619D01*
X170533334Y-118442857D01*
X170533334Y-118585714D01*
X170485715Y-118680952D01*
X170438096Y-118728571D01*
X170342858Y-118776190D01*
X169961905Y-118776190D01*
X171485715Y-119252381D02*
X170914286Y-119252381D01*
X171200000Y-119252381D02*
X171200000Y-118252381D01*
X171104762Y-118395238D01*
X171009524Y-118490476D01*
X170914286Y-118538095D01*
X164433334Y-118652381D02*
X164100000Y-118176190D01*
X163861905Y-118652381D02*
X163861905Y-117652381D01*
X164242858Y-117652381D01*
X164338096Y-117700000D01*
X164385715Y-117747619D01*
X164433334Y-117842857D01*
X164433334Y-117985714D01*
X164385715Y-118080952D01*
X164338096Y-118128571D01*
X164242858Y-118176190D01*
X163861905Y-118176190D01*
X164814286Y-117747619D02*
X164861905Y-117700000D01*
X164957143Y-117652381D01*
X165195239Y-117652381D01*
X165290477Y-117700000D01*
X165338096Y-117747619D01*
X165385715Y-117842857D01*
X165385715Y-117938095D01*
X165338096Y-118080952D01*
X164766667Y-118652381D01*
X165385715Y-118652381D01*
X168452381Y-120866666D02*
X167976190Y-121200000D01*
X168452381Y-121438095D02*
X167452381Y-121438095D01*
X167452381Y-121057142D01*
X167500000Y-120961904D01*
X167547619Y-120914285D01*
X167642857Y-120866666D01*
X167785714Y-120866666D01*
X167880952Y-120914285D01*
X167928571Y-120961904D01*
X167976190Y-121057142D01*
X167976190Y-121438095D01*
X167452381Y-120533333D02*
X167452381Y-119914285D01*
X167833333Y-120247619D01*
X167833333Y-120104761D01*
X167880952Y-120009523D01*
X167928571Y-119961904D01*
X168023810Y-119914285D01*
X168261905Y-119914285D01*
X168357143Y-119961904D01*
X168404762Y-120009523D01*
X168452381Y-120104761D01*
X168452381Y-120390476D01*
X168404762Y-120485714D01*
X168357143Y-120533333D01*
X157133334Y-100652381D02*
X156800000Y-100176190D01*
X156561905Y-100652381D02*
X156561905Y-99652381D01*
X156942858Y-99652381D01*
X157038096Y-99700000D01*
X157085715Y-99747619D01*
X157133334Y-99842857D01*
X157133334Y-99985714D01*
X157085715Y-100080952D01*
X157038096Y-100128571D01*
X156942858Y-100176190D01*
X156561905Y-100176190D01*
X157990477Y-99985714D02*
X157990477Y-100652381D01*
X157752381Y-99604762D02*
X157514286Y-100319048D01*
X158133334Y-100319048D01*
X166352381Y-116366666D02*
X165876190Y-116700000D01*
X166352381Y-116938095D02*
X165352381Y-116938095D01*
X165352381Y-116557142D01*
X165400000Y-116461904D01*
X165447619Y-116414285D01*
X165542857Y-116366666D01*
X165685714Y-116366666D01*
X165780952Y-116414285D01*
X165828571Y-116461904D01*
X165876190Y-116557142D01*
X165876190Y-116938095D01*
X165352381Y-115461904D02*
X165352381Y-115938095D01*
X165828571Y-115985714D01*
X165780952Y-115938095D01*
X165733333Y-115842857D01*
X165733333Y-115604761D01*
X165780952Y-115509523D01*
X165828571Y-115461904D01*
X165923810Y-115414285D01*
X166161905Y-115414285D01*
X166257143Y-115461904D01*
X166304762Y-115509523D01*
X166352381Y-115604761D01*
X166352381Y-115842857D01*
X166304762Y-115938095D01*
X166257143Y-115985714D01*
X160838095Y-116852381D02*
X160838095Y-117661905D01*
X160885714Y-117757143D01*
X160933333Y-117804762D01*
X161028571Y-117852381D01*
X161219048Y-117852381D01*
X161314286Y-117804762D01*
X161361905Y-117757143D01*
X161409524Y-117661905D01*
X161409524Y-116852381D01*
X162409524Y-117852381D02*
X161838095Y-117852381D01*
X162123809Y-117852381D02*
X162123809Y-116852381D01*
X162028571Y-116995238D01*
X161933333Y-117090476D01*
X161838095Y-117138095D01*
X173723809Y-101876190D02*
X173723809Y-102352381D01*
X173390476Y-101352381D02*
X173723809Y-101876190D01*
X174057143Y-101352381D01*
X174914286Y-102352381D02*
X174342857Y-102352381D01*
X174628571Y-102352381D02*
X174628571Y-101352381D01*
X174533333Y-101495238D01*
X174438095Y-101590476D01*
X174342857Y-101638095D01*
%LPC*%
D13*
X161900000Y-121200000D03*
X161900000Y-119200000D03*
D14*
X159900000Y-120750000D03*
X159900000Y-119650000D03*
X161800000Y-114650000D03*
X161800000Y-115750000D03*
X156200000Y-115450000D03*
X156200000Y-116550000D03*
D13*
X156500000Y-113100000D03*
X156500000Y-111100000D03*
D14*
X155900000Y-107550000D03*
X155900000Y-106450000D03*
X170400000Y-105750000D03*
X170400000Y-106850000D03*
X171700000Y-105750000D03*
X171700000Y-106850000D03*
D15*
X157050000Y-105100000D03*
X155950000Y-105100000D03*
D14*
X169800000Y-120250000D03*
X169800000Y-121350000D03*
D16*
X161550700Y-100200000D03*
X163049300Y-100200000D03*
D17*
X158200760Y-121001040D03*
X158200760Y-119598960D03*
X156201780Y-120300000D03*
D18*
X167950000Y-109900000D03*
X167950000Y-109100000D03*
X167950000Y-108300000D03*
X167950000Y-107500000D03*
X167950000Y-106700000D03*
X167950000Y-105900000D03*
X167950000Y-105100000D03*
X167950000Y-104300000D03*
D19*
X166500000Y-102850000D03*
X165700000Y-102850000D03*
X164900000Y-102850000D03*
X164100000Y-102850000D03*
X163300000Y-102850000D03*
X162500000Y-102850000D03*
X161700000Y-102850000D03*
X160900000Y-102850000D03*
D18*
X159450000Y-104300000D03*
X159450000Y-105100000D03*
X159450000Y-105900000D03*
X159450000Y-106700000D03*
X159450000Y-107500000D03*
X159450000Y-108300000D03*
X159450000Y-109100000D03*
X159450000Y-109900000D03*
D19*
X160900000Y-111350000D03*
X161700000Y-111350000D03*
X162500000Y-111350000D03*
X163300000Y-111350000D03*
X164100000Y-111350000D03*
X164900000Y-111350000D03*
X165700000Y-111350000D03*
X166500000Y-111350000D03*
D20*
X174200000Y-121950000D03*
D21*
X174200000Y-119410000D03*
X174200000Y-116870000D03*
X174200000Y-114330000D03*
X174200000Y-111790000D03*
X174200000Y-109250000D03*
D22*
X169450000Y-123900000D03*
D23*
X166910000Y-123900000D03*
X164370000Y-123900000D03*
X161830000Y-123900000D03*
X159290000Y-123900000D03*
X156750000Y-123900000D03*
D24*
X171450000Y-116900000D03*
X169950000Y-116900000D03*
D25*
X164300000Y-121350000D03*
X164300000Y-119850000D03*
X166200000Y-121350000D03*
X166200000Y-119850000D03*
D24*
X160150000Y-100200000D03*
X158650000Y-100200000D03*
D25*
X167800000Y-116050000D03*
X167800000Y-117550000D03*
D26*
X158147500Y-117170000D03*
X160052500Y-117170000D03*
X158147500Y-114630000D03*
X159100000Y-117170000D03*
X160052500Y-114630000D03*
D27*
X170150000Y-102100000D03*
X171100000Y-102100000D03*
X172049999Y-102100000D03*
M02*
